# xmcd CD database file
#
# Track frame offsets:
#	150
#	14596
#	32575
#	48679
#	72245
#	89037
#	118057
#	131289
#	156768
#	185904
#	199322
#	219045
#	258260
#
# Disc length: 3467 seconds
#
# Revision: 0
# Processed by: cddbd v1.5.2PL0 Copyright (c) Steve Scherf et al.
# Submitted via: CDex 1.70beta2
#
DISCID=be0d890d
DTITLE=Uncle Gulu's Blues Band - True Blues'd Honeymoon
DYEAR=2005
DGENRE=Blues
TTITLE0=You Give Me Nothin'
TTITLE1=To The Devil For A Dime
TTITLE2=White Hell
TTITLE3=Nobody Loves You
TTITLE4=Change It
TTITLE5=Nice And Warm
TTITLE6=Hey Mister!
TTITLE7=Hoochie Coochie Man
TTITLE8=Life Is Hard
TTITLE9=Walking To My Baby
TTITLE10=Angel On My Shoulder
TTITLE11=Tin Pan Alley
TTITLE12=Uncle Gulu's Blues Band Theme
EXTD=YEAR: 2005
EXTT0=
EXTT1=
EXTT2=
EXTT3=
EXTT4=
EXTT5=
EXTT6=
EXTT7=
EXTT8=
EXTT9=
EXTT10=
EXTT11=
EXTT12=
PLAYORDER=
